<?xml version="1.0" standalone="no"?>
<!DOCTYPE svg PUBLIC "-//W3C//DTD SVG 20010904//EN"
 "http://www.w3.org/TR/2001/REC-SVG-20010904/DTD/svg10.dtd">
<svg version="1.0" xmlns="http://www.w3.org/2000/svg"
 width="1280.000000pt" height="832.000000pt" viewBox="0 0 1280.000000 832.000000"
 preserveAspectRatio="xMidYMid meet">
<g transform="translate(0.000000,832.000000) scale(0.100000,-0.100000)"
fill="#000000" stroke="none">
<path d="M8535 8304 c-82 -21 -119 -40 -182 -96 -104 -93 -112 -95 -235 -74
-56 10 -123 25 -148 33 -52 17 -176 43 -235 50 -31 4 -68 -5 -155 -37 -190
-70 -340 -150 -444 -238 -24 -20 -68 -57 -97 -82 l-54 -45 -90 0 c-158 0 -210
-49 -210 -200 0 -56 -6 -89 -18 -112 -35 -65 -19 -101 69 -161 l32 -22 -3 -92
-3 -93 -99 -8 c-120 -10 -244 -46 -343 -100 -93 -50 -110 -64 -110 -92 0 -36
-20 -45 -95 -45 -84 0 -109 -14 -135 -75 -18 -42 -18 -42 -82 -49 -34 -3 -126
-3 -203 -1 -77 3 -250 7 -385 9 -135 2 -270 7 -301 11 -40 5 -65 3 -91 -8 -66
-28 -68 -36 -69 -298 0 -325 25 -439 109 -491 30 -18 44 -20 126 -15 105 6
126 -1 126 -43 0 -49 26 -64 151 -89 155 -30 193 -51 238 -130 52 -92 73 -101
237 -101 157 0 262 -18 394 -67 133 -50 182 -77 207 -115 27 -41 56 -154 82
-323 22 -142 47 -280 87 -480 36 -179 37 -186 75 -312 l33 -113 -20 -27 c-16
-21 -35 -30 -83 -40 -129 -26 -209 -80 -288 -191 -118 -166 -245 -327 -357
-451 -254 -282 -320 -351 -506 -531 -105 -102 -226 -225 -268 -275 -105 -123
-483 -515 -556 -577 -54 -45 -63 -49 -95 -43 -56 10 -77 29 -110 99 -34 72
-44 79 -156 117 -93 31 -183 32 -222 3 -41 -30 -165 -331 -218 -527 -12 -43
-28 -72 -65 -112 -28 -31 -50 -61 -50 -69 0 -8 -11 -21 -24 -29 -25 -17 -86
-149 -86 -189 -1 -13 -29 -79 -63 -148 l-62 -125 -70 1 c-99 2 -293 20 -340
32 -22 6 -78 13 -124 16 -48 4 -103 15 -127 26 -57 24 -100 33 -429 80 -387
56 -471 66 -700 85 -110 9 -274 22 -365 30 -189 17 -321 19 -366 6 -18 -5 -81
-5 -150 0 -535 40 -720 33 -701 -24 2 -7 77 -24 168 -39 90 -16 170 -30 178
-33 28 -11 -2 -20 -67 -21 -37 -1 -140 -10 -230 -20 l-162 -18 0 -32 c0 -36
13 -44 70 -44 22 0 72 -4 112 -10 40 -5 161 -14 268 -19 107 -6 260 -17 340
-25 80 -8 267 -20 415 -26 342 -13 439 -22 765 -71 146 -22 409 -60 585 -85
328 -47 375 -57 375 -80 0 -15 -20 -21 -101 -28 -108 -9 -192 -63 -242 -156
l-18 -33 -59 7 c-82 9 -77 -7 10 -33 39 -12 70 -26 70 -31 0 -5 18 -30 41 -56
46 -53 41 -64 -26 -64 -71 0 -24 -19 77 -30 54 -6 128 -22 165 -35 92 -32 194
-45 403 -52 144 -5 189 -3 255 11 76 17 171 28 335 42 52 4 101 1 160 -11 54
-10 156 -18 280 -21 l195 -5 34 47 c19 26 50 78 70 117 20 38 45 74 56 79 14
6 107 2 270 -12 138 -12 336 -28 440 -35 105 -8 231 -18 280 -24 50 -6 120
-11 156 -11 37 0 88 -4 115 -9 27 -5 121 -14 209 -20 88 -6 205 -15 260 -21
55 -5 186 -17 290 -25 202 -17 620 -61 670 -71 17 -4 66 -10 110 -14 234 -23
397 -60 403 -92 3 -16 -7 -18 -94 -18 -151 0 -105 -21 75 -34 157 -12 181 -19
162 -54 -14 -26 -5 -33 39 -26 41 7 150 -20 150 -36 0 -6 -19 -10 -42 -10 -61
0 -44 -7 59 -25 80 -14 140 -14 475 -6 397 11 516 24 596 65 56 29 156 104
221 166 44 41 71 60 85 58 19 -3 21 -11 24 -83 2 -44 6 -83 10 -87 4 -4 43
-14 87 -24 149 -31 396 -3 429 49 18 28 20 44 53 327 18 147 28 284 28 365 -1
121 -3 134 -29 192 -15 34 -26 67 -24 74 3 9 38 13 124 15 141 2 248 29 383
96 103 52 355 229 434 306 62 60 140 169 158 220 6 17 26 43 45 57 30 23 34
32 34 71 0 25 5 55 11 67 20 37 120 147 134 147 17 0 35 -31 35 -58 0 -11 9
-50 21 -87 43 -139 137 -198 314 -197 157 0 238 26 590 186 241 110 241 110
297 164 70 67 75 90 43 206 -46 171 -141 422 -215 571 -48 97 -120 297 -120
334 0 10 20 43 45 73 50 61 101 165 111 226 9 55 -15 99 -87 162 -71 62 -132
145 -189 260 -122 244 -306 476 -452 570 -94 61 -156 80 -303 92 -178 14 -185
14 -253 -7 -34 -10 -71 -15 -85 -11 -15 3 -58 45 -108 103 -45 54 -97 112
-115 129 -18 18 -55 77 -83 133 -50 98 -84 155 -157 256 -93 130 -115 157
-202 249 -52 55 -119 136 -150 179 -31 44 -105 128 -165 186 -60 58 -132 138
-160 176 -28 39 -74 95 -102 125 -28 30 -68 78 -87 105 -72 100 -184 182 -316
232 -101 37 -105 44 -118 178 -8 80 -12 91 -54 140 -42 49 -47 64 -28 83 17
17 49 15 76 -4 29 -20 39 -13 13 10 -10 9 -35 20 -55 23 -30 5 -42 1 -61 -17
-34 -32 -31 -51 15 -93 35 -31 40 -41 40 -77 0 -34 -6 -48 -34 -76 -28 -28
-42 -34 -76 -34 -81 0 -106 40 -50 82 40 29 38 51 -10 143 -22 42 -40 82 -40
90 0 8 28 42 63 75 78 74 115 144 129 244 10 68 8 86 -15 188 -14 62 -36 169
-47 238 -27 163 -36 195 -71 257 -57 99 -130 151 -330 232 -42 18 -103 52
-138 77 -108 79 -180 104 -246 88z m-1635 -539 c18 -22 -4 -70 -58 -123 -37
-38 -47 -43 -80 -40 -45 4 -52 28 -27 94 18 49 40 64 100 75 22 3 43 7 46 8 4
0 12 -6 19 -14z m-95 -225 c0 -8 -10 -16 -22 -18 -22 -3 -32 16 -16 32 12 11
38 2 38 -14z m-57 -94 c4 -34 -8 -49 -31 -40 -19 7 -33 47 -22 64 4 6 17 10
28 8 16 -2 23 -11 25 -32z m492 -1380 c54 -30 88 -66 96 -100 16 -76 68 -126
131 -126 53 0 138 38 251 112 130 86 168 104 188 87 22 -18 17 -44 -25 -106
-55 -83 -67 -110 -81 -178 -7 -33 -16 -68 -21 -77 -5 -10 -27 -86 -48 -171
-22 -84 -51 -175 -65 -201 -14 -27 -26 -55 -26 -62 0 -18 -47 -114 -98 -200
-52 -87 -93 -128 -119 -120 -27 9 -251 230 -307 304 l-47 62 20 63 c21 64 36
132 71 329 20 113 20 120 4 258 -20 174 -17 179 76 126z m-500 -96 c0 -5 -4
-10 -9 -10 -6 0 -13 5 -16 10 -3 6 1 10 9 10 9 0 16 -4 16 -10z m338 -32 c16
-14 15 -103 -3 -248 -8 -63 -19 -158 -26 -212 -16 -128 -19 -132 -69 -83 -62
60 -77 96 -78 195 -2 90 -26 229 -47 270 -29 57 -26 62 55 81 75 17 144 16
168 -3z m3938 -1260 c22 -24 58 -69 80 -101 l39 -59 -29 -24 c-23 -20 -31 -22
-43 -13 -18 15 -55 87 -83 160 -34 92 -25 101 36 37z m-2359 -320 c32 -40 180
-164 220 -184 21 -10 50 -27 64 -36 15 -10 69 -34 120 -53 146 -56 167 -71
184 -129 8 -27 15 -60 15 -72 0 -32 24 -83 63 -134 88 -116 176 -342 163 -422
-8 -51 -47 -128 -64 -128 -19 0 -102 48 -230 132 -57 37 -109 68 -115 68 -14
0 -110 57 -349 208 -97 61 -229 139 -295 173 -152 81 -193 106 -193 122 0 27
364 477 387 477 6 0 20 -10 30 -22z m-1970 -1636 c41 -22 172 -122 238 -180
108 -96 242 -182 434 -277 108 -53 212 -109 231 -124 19 -15 76 -49 125 -76
50 -27 140 -78 200 -115 61 -36 160 -95 220 -130 353 -204 349 -201 400 -280
23 -36 60 -86 83 -113 24 -27 46 -65 52 -90 30 -120 28 -118 81 -140 57 -25
64 -49 23 -88 -51 -48 -51 -79 1 -140 19 -24 23 -36 18 -66 -8 -47 -124 -293
-147 -312 -15 -13 -39 -13 -164 -3 -81 7 -196 19 -257 27 -60 9 -150 20 -200
25 -49 5 -171 18 -270 29 -541 61 -922 87 -1090 75 -64 -5 -114 -2 -175 10
-164 31 -1007 127 -1595 182 -109 10 -105 5 -105 147 0 67 -4 148 -10 180 -5
32 -6 65 -3 73 3 8 26 29 52 47 25 17 73 59 106 92 140 141 218 199 327 243
57 24 124 56 149 73 70 48 106 64 290 134 266 101 491 234 604 358 55 59 75
91 114 182 80 188 98 216 160 248 64 32 67 32 108 9z m-4706 -1648 c79 -9 218
-17 309 -19 91 -2 190 -8 220 -14 30 -6 100 -20 155 -31 55 -11 137 -25 182
-30 104 -13 113 -17 113 -45 0 -33 -23 -38 -120 -26 -47 6 -157 15 -245 21
-88 6 -209 20 -270 30 -60 11 -159 24 -220 30 -138 14 -344 46 -379 60 -14 5
-26 16 -26 25 0 20 93 20 281 -1z m3179 -330 c124 -8 281 -23 350 -34 69 -10
190 -26 270 -35 172 -21 202 -27 208 -43 4 -14 -33 -12 -253 8 -155 15 -799
68 -933 77 -84 6 -98 12 -88 39 6 16 34 16 446 -12z m-1055 -253 c3 -10 0 -30
-6 -45 -10 -22 -19 -26 -54 -26 -45 0 -145 17 -154 26 -3 3 -1 13 5 22 14 21
83 40 151 41 42 1 53 -2 58 -18z"/>
</g>
</svg>
